<svg xmlns="http://www.w3.org/2000/svg" width="774" height="600" fill="none" viewBox="0 0 774 600">
  <path fill="#F53" d="M0 98.915c0-11.55 9.66-21.001 21.526-21.001s21.526 9.45 21.526 21c0 11.552-9.66 21.002-21.526 21.002S0 110.466 0 98.915Zm0 413.721c0-11.551 9.66-21.001 21.526-21.001s21.526 9.45 21.526 21.001c0 11.55-9.66 21.001-21.526 21.001S0 524.186 0 512.636ZM3.99 64.263c-2.52 0-3.78-1.365-3.15-3.675C9.24 28.666 32.867 0 84.634 0c51.768 0 75.394 27.826 83.69 60.063.63 2.31-.63 3.675-3.15 3.675h-41.898c-1.575 0-2.52-.63-3.255-2.31-5.67-13.966-17.326-21.526-35.492-21.526-18.166 0-30.241 8.085-35.492 22.051-.63 1.68-1.575 2.31-3.255 2.31H3.885h.105Zm0 413.721c-2.52 0-3.78-1.365-3.15-3.675 8.4-31.922 32.027-60.588 83.794-60.588 51.768 0 75.394 27.826 83.69 60.063.63 2.31-.63 3.675-3.15 3.675h-41.898c-1.575 0-2.52-.63-3.255-2.31-5.67-13.966-17.326-21.526-35.492-21.526-18.166 0-30.241 8.085-35.492 22.051-.63 1.68-1.575 2.31-3.255 2.31H3.885h.105Zm171.684-267.553c2.205 0 3.465 2.1 2.31 3.885l-64.893 107.105v64.893c0 1.576-1.05 2.626-2.625 2.626H70.038c-1.575 0-2.625-1.05-2.625-2.626v-64.893L2.52 214.316c-1.05-1.785.105-3.885 2.31-3.885h44.942c1.575 0 2.836.735 3.36 1.785l36.962 64.263 36.963-64.263c.63-1.155 1.785-1.785 3.36-1.785h45.257Zm-91.67-24.151c-44.102 0-68.463-21.526-80.014-48.513-1.155-2.625 0-4.2 2.31-4.2h45.047c1.366 0 2.1.315 3.046 1.26 7.35 7.77 18.376 11.551 30.451 11.551 19.426 0 33.077-9.976 38.012-29.612H87.154c-1.575 0-2.625-1.05-2.625-2.625V84.739c0-1.575 1.05-2.625 2.625-2.625h82.115c1.575 0 2.625 1.05 2.625 2.625v95.345c0 1.575-1.05 2.625-2.625 2.625h-30.242c-1.575 0-2.625-1.05-2.625-2.625v-15.75c-9.24 13.44-25.411 22.051-52.503 22.051l.105-.105Zm0 413.72c-44.102 0-68.463-21.526-80.014-48.512-1.155-2.626 0-4.201 2.31-4.201h45.047c1.366 0 2.1.315 3.046 1.26 7.35 7.771 18.376 11.551 30.451 11.551 19.426 0 33.077-9.975 38.012-29.611H87.154c-1.575 0-2.625-1.05-2.625-2.626V498.46c0-1.575 1.05-2.625 2.625-2.625h82.115c1.575 0 2.625 1.05 2.625 2.625v95.24c0 1.575-1.05 2.625-2.625 2.625h-30.242c-1.575 0-2.625-1.05-2.625-2.625v-15.751C127.162 591.39 110.991 600 83.899 600h.105Zm85.055-300.525c0-55.548 38.327-93.139 95.029-93.139 56.703 0 95.03 37.591 95.03 93.139 0 55.548-38.327 93.14-95.03 93.14-56.702 0-95.029-37.697-95.029-93.14Zm184.074 120.966v109.731c0 46.412-28.352 69.828-78.754 69.828-50.403 0-78.754-23.311-78.754-69.828V420.441c0-1.575 1.05-2.625 2.625-2.625h40.427c1.575 0 2.625 1.05 2.625 2.625v106.79c0 21.841 11.026 32.762 33.077 32.762s33.077-10.71 33.077-32.762v-106.79c0-1.575 1.05-2.625 2.625-2.625h40.427c1.575 0 2.625 1.05 2.625 2.625Zm-37.802-273.538v33.076c0 1.575-1.05 2.625-2.625 2.625H199.825c-1.575 0-2.625-1.05-2.625-2.625V6.72c0-1.575 1.05-2.625 2.625-2.625h111.831c1.575 0 2.625 1.05 2.625 2.625v33.077c0 1.575-1.05 2.625-2.625 2.625h-68.779v30.662h54.813c1.575 0 2.625 1.05 2.625 2.625v33.077c0 1.575-1.05 2.625-2.625 2.625h-54.813v32.762h69.829c1.575 0 2.625 1.05 2.625 2.625v.105Zm-4.515 152.572c0-31.606-19.111-53.237-46.728-53.237-27.616 0-46.727 21.631-46.727 53.237 0 31.607 19.111 53.238 46.727 53.238 27.617 0 46.728-21.631 46.728-53.238ZM479.139 6.72v33.077c0 1.575-1.05 2.625-2.625 2.625H333.182c-1.575 0-2.625-1.05-2.625-2.625V6.72c0-1.575 1.05-2.625 2.625-2.625h143.332c1.575 0 2.625 1.05 2.625 2.625Zm-51.453 60.378V179.98c0 1.575-1.05 2.625-2.625 2.625h-40.427c-1.575 0-2.625-1.05-2.625-2.625V67.099c0-1.576 1.05-2.626 2.625-2.626h40.427c1.575 0 2.625 1.05 2.625 2.625Zm111.831 145.958v109.73c0 46.413-28.351 69.829-78.754 69.829-50.402 0-78.754-23.311-78.754-69.829v-109.73c0-1.575 1.05-2.625 2.625-2.625h40.427c1.575 0 2.625 1.05 2.625 2.625v106.895c0 21.841 11.026 32.762 33.077 32.762s33.077-10.711 33.077-32.762V213.056c0-1.575 1.05-2.625 2.625-2.625h40.427c1.575 0 2.625 1.05 2.625 2.625ZM427.686 420.441V593.7c0 1.575-1.05 2.625-2.625 2.625h-40.427c-1.575 0-2.625-1.05-2.625-2.625V420.441c0-1.575 1.05-2.625 2.625-2.625h40.427c1.575 0 2.625 1.05 2.625 2.625Zm105.531 137.557h.525c30.661 0 46.412-17.326 46.412-51.138 0-33.811-17.326-50.612-51.663-50.612h-24.676v137.557c0 1.575-1.05 2.625-2.625 2.625h-40.427c-1.575 0-2.625-1.05-2.625-2.625V420.546c0-1.575 1.05-2.625 2.625-2.625h69.303c63.004 0 98.18 31.712 98.18 89.044 0 57.333-35.911 89.465-93.979 89.465h-1.05c-1.575 0-2.626-1.05-2.626-2.625v-33.077c0-1.575 1.051-2.625 2.626-2.625v-.105Zm199.509-174.834c1.891 2.625.841 5.776-2.31 5.776h-45.677c-2.1 0-2.94-.525-3.675-1.891l-38.327-61.743c-1.575-2.625-1.89-3.36-1.89-5.25V289.08c0-1.575 1.05-2.625 2.625-2.625h6.3c12.811 0 22.051-6.511 22.051-19.741 0-13.231-8.19-20.161-22.051-20.161h-35.701v139.656c0 1.576-1.05 2.626-2.625 2.626h-40.427c-1.576 0-2.626-1.05-2.626-2.626V212.951c0-1.575 1.05-2.625 2.626-2.625h81.694c40.427 0 65.103 19.426 65.103 53.552 0 34.127-10.606 41.267-31.712 48.618l46.727 70.563-.105.105Zm36.752 177.459V593.7c0 1.575-1.05 2.625-2.625 2.625h-112.88c-1.575 0-2.626-1.05-2.626-2.625V420.441c0-1.575 1.051-2.625 2.626-2.625h111.83c1.575 0 2.625 1.05 2.625 2.625v33.077c0 1.575-1.05 2.625-2.625 2.625h-68.778v30.661h54.812c1.575 0 2.626 1.05 2.626 2.626v33.076c0 1.575-1.051 2.625-2.626 2.625h-54.812v32.762h69.828c1.575 0 2.625 1.05 2.625 2.625v.105Z"/>
</svg>
